<?xml version="1.0" standalone="no"?>
<!DOCTYPE svg PUBLIC "-//W3C//DTD SVG 20010904//EN"
 "http://www.w3.org/TR/2001/REC-SVG-20010904/DTD/svg10.dtd">
<svg version="1.0" xmlns="http://www.w3.org/2000/svg"
 width="500.000000pt" height="500.000000pt" viewBox="0 0 500.000000 500.000000"
 preserveAspectRatio="xMidYMid meet">

<g transform="translate(0.000000,500.000000) scale(0.100000,-0.100000)"
fill="#000000" stroke="none">
<path d="M1635 2848 c-69 -25 -115 -82 -87 -110 8 -8 9 -5 6 8 -9 36 57 89
127 103 34 7 37 9 14 9 -16 0 -43 -4 -60 -10z"/>
<path d="M1790 2847 c27 -9 36 -18 38 -40 2 -17 -4 -37 -14 -48 -9 -10 -13
-19 -7 -19 18 0 43 36 43 63 0 30 -33 57 -70 56 -22 0 -21 -2 10 -12z"/>
<path d="M1705 2793 c-19 -21 -52 -62 -72 -90 -21 -29 -41 -53 -44 -53 -4 0
-10 11 -13 25 -4 14 -13 25 -21 25 -31 0 -71 -99 -47 -114 4 -2 8 11 8 30 0
19 7 42 16 51 16 15 18 14 29 -10 10 -21 9 -30 -2 -44 -12 -16 -12 -17 2 -6
13 11 19 9 34 -7 10 -11 28 -20 39 -20 19 0 19 1 -4 13 -45 23 -36 46 54 142
47 50 86 91 86 93 0 1 -7 2 -16 2 -8 0 -31 -17 -49 -37z"/>
<path d="M2155 2763 c-14 -15 -25 -31 -25 -36 0 -4 -5 -5 -11 -2 -23 15 -65
-9 -120 -66 -31 -32 -53 -59 -49 -59 4 0 13 7 21 16 12 14 14 14 21 -5 10 -28
29 -26 58 4 l23 25 11 -22 c6 -12 18 -23 26 -26 10 -3 9 0 -3 10 -23 18 -14
45 40 113 21 28 42 56 47 63 14 23 -13 12 -39 -15z m-35 -51 c0 -5 -22 -33
-49 -63 -40 -43 -52 -52 -62 -42 -11 11 -9 18 7 40 32 44 104 88 104 65z"/>
<path d="M2512 2751 c2 -7 7 -12 11 -12 12 1 9 15 -3 20 -7 2 -11 -2 -8 -8z"/>
<path d="M2747 2740 c-9 -11 -25 -20 -34 -20 -14 0 -15 -2 -4 -9 15 -10 4 -38
-33 -81 -11 -13 -14 -19 -5 -12 14 10 17 9 22 -8 3 -13 13 -20 29 -19 23 2 23
2 1 6 -30 6 -29 29 2 76 20 29 33 37 58 38 21 1 25 3 11 6 -16 3 -20 9 -17 24
7 25 -8 24 -30 -1z"/>
<path d="M1706 2728 c3 -4 13 -8 23 -8 10 0 26 -9 37 -21 17 -19 17 -23 3 -47
-8 -15 -30 -37 -48 -49 -35 -24 -26 -32 12 -12 66 34 88 93 46 123 -20 13 -20
14 -2 18 10 3 -3 5 -29 5 -26 0 -45 -4 -42 -9z"/>
<path d="M1864 2686 c-47 -46 -53 -66 -29 -86 13 -11 21 -10 44 7 25 19 28 20
39 4 10 -14 11 -14 11 4 1 11 10 35 21 53 16 27 18 37 9 48 -20 25 -50 15 -95
-30z m86 25 c0 -14 -68 -98 -86 -105 -46 -17 -25 46 28 84 42 31 58 37 58 21z"/>
<path d="M2300 2714 c-14 -10 -40 -31 -59 -48 l-34 -31 21 36 c12 20 22 39 22
43 0 17 -20 1 -55 -46 -21 -29 -30 -46 -20 -38 16 14 17 13 11 -8 -11 -34 3
-27 61 30 53 52 65 55 38 8 -8 -14 -14 -36 -15 -50 l0 -24 17 24 c9 14 30 41
47 60 27 31 28 32 4 11 -30 -26 -35 -23 -17 10 16 31 7 41 -21 23z"/>
<path d="M2649 2713 c-13 -9 -39 -30 -58 -47 l-34 -31 21 38 c39 69 27 64 -48
-18 -30 -33 -40 -46 -22 -30 l34 30 -7 -27 c-10 -41 8 -35 51 17 42 51 62 59
39 15 -8 -16 -15 -36 -15 -44 0 -21 20 -30 33 -16 9 10 9 11 0 6 -24 -13 -14
30 17 72 32 45 27 61 -11 35z"/>
<path d="M2841 2684 c-31 -36 -38 -50 -32 -67 11 -30 25 -31 58 -3 51 43 69
116 29 116 -8 0 -32 -21 -55 -46z m57 -5 c4 -22 -36 -69 -59 -69 -25 0 -24 8
7 53 25 38 46 44 52 16z"/>
<path d="M3055 2718 c-11 -6 -37 -27 -57 -46 -43 -41 -47 -38 -17 12 30 51 8
44 -37 -11 -21 -27 -31 -42 -23 -35 14 11 16 9 11 -13 -7 -38 10 -30 58 26 42
49 67 62 36 17 -17 -25 -21 -64 -7 -72 5 -3 20 3 32 15 22 19 22 19 2 7 -37
-21 -39 0 -4 48 35 50 37 69 6 52z"/>
<path d="M2375 2710 c-3 -5 -3 -10 0 -10 3 0 -1 -10 -9 -22 -9 -12 -16 -35
-16 -50 0 -23 4 -28 23 -27 16 1 18 2 5 6 -24 6 -22 23 7 63 14 19 25 38 25
42 0 11 -28 10 -35 -2z"/>
<path d="M2470 2702 c0 -5 -17 -28 -37 -53 -21 -24 -30 -38 -22 -31 14 10 17
9 22 -8 3 -12 13 -20 24 -19 16 1 16 2 1 6 -24 6 -23 13 12 61 34 48 36 52 15
52 -8 0 -15 -4 -15 -8z"/>
<path d="M1575 2490 c-11 -4 -33 -21 -48 -38 -33 -34 -35 -84 -5 -90 12 -2 16
1 12 11 -12 33 42 115 62 94 6 -5 -32 -144 -91 -330 -15 -51 -20 -77 -12 -75
21 7 54 85 88 208 18 66 35 120 38 120 3 0 18 -69 34 -153 21 -116 32 -156 47
-168 10 -9 16 -19 13 -23 -4 -3 -1 -6 5 -6 7 0 12 15 12 33 0 41 31 178 69
312 36 122 35 116 17 109 -21 -8 -43 -67 -75 -199 -16 -66 -31 -113 -34 -105
-3 8 -14 70 -25 137 -26 160 -45 189 -107 163z"/>
<path d="M2630 2489 c-74 -30 -120 -122 -90 -179 6 -11 41 -37 78 -59 39 -23
73 -50 80 -65 14 -32 2 -70 -28 -86 -32 -17 -97 -15 -126 5 -22 14 -25 22 -22
53 3 21 8 45 12 55 11 24 -14 22 -42 -3 -24 -22 -29 -68 -12 -101 25 -47 130
-65 193 -33 47 24 67 53 67 101 0 45 -16 63 -115 126 -40 26 -51 38 -53 63 -5
56 84 129 134 110 17 -7 17 -13 -7 -93 -10 -32 -10 -46 -2 -54 17 -17 45 34
51 93 4 42 1 54 -13 65 -22 15 -69 16 -105 2z"/>
<path d="M1943 2468 c-36 -40 -71 -110 -102 -204 -34 -100 -38 -141 -18 -168
12 -17 14 -17 28 0 7 9 25 40 39 67 44 90 92 92 69 3 -9 -37 -9 -49 2 -62 16
-20 65 -12 94 16 l22 20 11 -25 c15 -32 46 -32 76 0 l23 25 11 -25 c18 -38 56
-33 103 14 22 21 39 44 39 50 0 6 -16 -7 -36 -29 -59 -65 -86 -51 -59 31 14
42 20 49 36 44 39 -13 66 38 34 65 -19 16 -40 3 -25 -15 18 -22 2 -37 -31 -30
-23 5 -31 3 -36 -12 -4 -10 -20 -39 -36 -65 -51 -84 -91 -48 -52 46 9 20 13
41 9 47 -9 16 -42 -19 -49 -52 -8 -35 -69 -103 -87 -96 -14 4 -14 15 -2 84 16
100 -80 99 -128 -1 l-19 -41 4 43 c4 33 14 52 45 83 74 74 122 209 74 209 -10
0 -28 -10 -39 -22z m26 -55 c-13 -36 -70 -125 -76 -119 -9 9 69 146 83 146 2
0 -1 -12 -7 -27z"/>
<path d="M3510 2400 c-11 -16 -30 -50 -41 -75 -11 -26 -27 -45 -36 -45 -12 0
-13 -3 -4 -13 16 -20 -14 -102 -46 -127 -26 -20 -63 -27 -63 -11 0 5 7 27 15
51 16 46 9 72 -25 90 -12 6 -20 21 -20 36 0 41 -24 23 -32 -24 -12 -72 -47
-122 -84 -122 -22 0 -23 1 -8 35 18 44 18 79 -1 95 -21 18 -60 5 -73 -25 -7
-14 -20 -25 -31 -25 -38 0 -78 -103 -51 -135 19 -23 65 -18 98 10 17 15 42 25
60 25 33 0 69 35 92 89 7 17 18 30 24 28 18 -6 19 -46 2 -88 -19 -48 -19 -44
0 -63 23 -23 58 -19 93 10 22 18 31 21 31 11 0 -22 34 -47 65 -47 19 0 41 13
71 44 24 24 44 48 44 55 0 6 -16 -7 -36 -29 -26 -29 -44 -40 -64 -40 -38 0
-45 26 -25 95 l16 55 54 0 c68 0 73 18 6 22 l-49 3 34 58 c19 32 34 64 34 72
0 25 -27 17 -50 -15z m-359 -180 c-12 -42 -25 -51 -35 -24 -10 27 -7 52 10 69
27 26 40 3 25 -45z m-62 -93 c-44 -35 -62 1 -33 65 l18 40 19 -43 c18 -44 18
-44 -4 -62z"/>
<path d="M2790 2223 c-7 -48 -23 -125 -36 -171 -28 -96 -29 -102 -10 -102 8 0
20 16 27 35 9 24 16 31 21 22 5 -7 8 2 7 23 -4 69 23 151 61 192 20 21 44 38
54 38 23 0 35 -39 24 -72 -12 -33 -62 -78 -88 -78 -10 0 -22 -4 -25 -10 -4 -6
10 -10 34 -10 47 0 96 36 118 88 36 88 -35 146 -106 87 l-30 -26 -3 33 c-2 21
-9 34 -19 36 -14 2 -19 -13 -29 -85z"/>
<path d="M1923 2035 c0 -22 2 -30 4 -17 2 12 2 30 0 40 -3 9 -5 -1 -4 -23z"/>
<path d="M2713 2035 c0 -22 2 -30 4 -17 2 12 2 30 0 40 -3 9 -5 -1 -4 -23z"/>
<path d="M3152 2040 c0 -19 2 -27 5 -17 2 9 2 25 0 35 -3 9 -5 1 -5 -18z"/>
<path d="M3433 2035 c0 -22 2 -30 4 -17 2 12 2 30 0 40 -3 9 -5 -1 -4 -23z"/>
<path d="M1210 2050 c0 -5 5 -10 11 -10 5 0 7 5 4 10 -3 6 -8 10 -11 10 -2 0
-4 -4 -4 -10z"/>
<path d="M2990 2050 c0 -5 5 -10 11 -10 5 0 7 5 4 10 -3 6 -8 10 -11 10 -2 0
-4 -4 -4 -10z"/>
<path d="M1282 2025 c0 -16 2 -22 5 -12 2 9 2 23 0 30 -3 6 -5 -1 -5 -18z"/>
<path d="M1426 2023 c9 -38 14 -42 14 -10 0 14 -5 29 -10 32 -7 4 -8 -3 -4
-22z"/>
<path d="M1492 2025 c0 -16 2 -22 5 -12 2 9 2 23 0 30 -3 6 -5 -1 -5 -18z"/>
<path d="M1512 2025 c0 -16 2 -22 5 -12 2 9 2 23 0 30 -3 6 -5 -1 -5 -18z"/>
<path d="M1562 2030 c0 -14 2 -19 5 -12 2 6 2 18 0 25 -3 6 -5 1 -5 -13z"/>
<path d="M1582 2025 c0 -16 2 -22 5 -12 2 9 2 23 0 30 -3 6 -5 -1 -5 -18z"/>
<path d="M1648 2025 c2 -14 6 -25 8 -25 2 0 4 11 4 25 0 14 -4 25 -9 25 -4 0
-6 -11 -3 -25z"/>
<path d="M2002 2029 c-7 -12 -11 -24 -8 -27 3 -3 6 1 6 9 0 11 2 11 10 -1 8
-12 10 -9 10 13 0 33 -1 33 -18 6z"/>
<path d="M2081 2043 c-1 -6 -4 -20 -7 -30 -5 -17 -5 -17 6 0 6 10 9 23 6 30
-3 9 -5 9 -5 0z"/>
<path d="M2143 2035 c0 -8 4 -12 9 -9 4 3 8 9 8 15 0 5 -4 9 -8 9 -5 0 -9 -7
-9 -15z"/>
<path d="M2422 2025 c0 -16 2 -22 5 -12 2 9 2 23 0 30 -3 6 -5 -1 -5 -18z"/>
<path d="M2633 2015 c0 -22 2 -30 4 -17 2 12 2 30 0 40 -3 9 -5 -1 -4 -23z"/>
<path d="M2850 2030 c0 -11 5 -20 10 -20 6 0 10 9 10 20 0 11 -4 20 -10 20 -5
0 -10 -9 -10 -20z"/>
<path d="M3062 2025 c0 -16 2 -22 5 -12 2 9 2 23 0 30 -3 6 -5 -1 -5 -18z"/>
<path d="M3132 2025 c0 -16 2 -22 5 -12 2 9 2 23 0 30 -3 6 -5 -1 -5 -18z"/>
<path d="M3212 2025 c0 -16 2 -22 5 -12 2 9 2 23 0 30 -3 6 -5 -1 -5 -18z"/>
<path d="M3232 2025 c0 -16 2 -22 5 -12 2 9 2 23 0 30 -3 6 -5 -1 -5 -18z"/>
<path d="M3282 2025 c0 -16 2 -22 5 -12 2 9 2 23 0 30 -3 6 -5 -1 -5 -18z"/>
<path d="M3492 2025 c0 -16 2 -22 5 -12 2 9 2 23 0 30 -3 6 -5 -1 -5 -18z"/>
<path d="M3582 2025 c0 -16 2 -22 5 -12 2 9 2 23 0 30 -3 6 -5 -1 -5 -18z"/>
<path d="M2651 2024 c0 -11 3 -14 6 -6 3 7 2 16 -1 19 -3 4 -6 -2 -5 -13z"/>
<path d="M3512 2020 c0 -14 2 -19 5 -12 2 6 2 18 0 25 -3 6 -5 1 -5 -13z"/>
<path d="M3562 2020 c0 -14 2 -19 5 -12 2 6 2 18 0 25 -3 6 -5 1 -5 -13z"/>
<path d="M1713 1995 c0 -8 4 -15 9 -15 4 0 8 7 8 15 0 8 -4 15 -8 15 -5 0 -9
-7 -9 -15z"/>
<path d="M1785 1999 c-4 -6 -5 -12 -2 -15 2 -3 7 2 10 11 7 17 1 20 -8 4z"/>
</g>
</svg>
